<?xml version="1.0" encoding="utf-8"?>
<!-- Generator: Adobe Illustrator 16.0.0, SVG Export Plug-In . SVG Version: 6.00 Build 0)  -->
<!DOCTYPE svg PUBLIC "-//W3C//DTD SVG 1.1//EN" "http://www.w3.org/Graphics/SVG/1.1/DTD/svg11.dtd">
<svg version="1.1" id="Layer_1" xmlns="http://www.w3.org/2000/svg" xmlns:xlink="http://www.w3.org/1999/xlink" x="0px" y="0px"
	 width="65.197px" height="67.601px" viewBox="0 0 65.197 67.601" enable-background="new 0 0 65.197 67.601" xml:space="preserve">
<g>
	<path fill-rule="evenodd" clip-rule="evenodd" fill="#FFFFFF" d="M5.101,27.346c-0.26-0.198-0.361-0.575-0.559-0.848
		c-0.798-1.101-1.705-1.272-2.162-1.617c-0.172-0.129-0.071-0.042-0.172-0.167c-0.907,0.004-0.42-1.276-1.037-3.061
		c-0.21-0.608-0.298-0.432-0.525-0.79c0.604-0.697,1.339-2.195,1.348-3.4c0-0.739,0.192-0.382,0.394-0.869
		c0.462-1.1-1.583-1.184-1.957-1.452c0.051-0.722,2.767-4.359,3.665-5.047c0.546-0.416,1.239-0.659,1.877-1.028
		c2.595-1.503,2.02-2.394,2.162-3.661c0.101-0.882,0.492-1.532,1.046-1.855c0.852-0.495,1.175-0.017,2.07-0.828
		c0.474,0.362,0.856,0.58,1.75,0.362c1.44-0.357,2.922-1.272,4.895-1.729c1.063-0.249,2.755-0.29,3.934-0.475
		c1.007-0.155,3.019-0.554,3.955-0.47c0.21,0.356,0.416,1.171,0.361,1.641c-0.08,0.693-0.71,0.722-0.751,1.318
		c-0.046,0.655,0.751,0.671,1.289,0.764c0.793,0.135,1.046,0.24,1.792-0.017c0.298,0.479-0.104,0.534,0.731,0.853
		c0.402,0.151,0.754,0.265,1.184,0.408c0.524,0.176,0.323,0.5,0.726,0.874c0.366,0.339,0.697,0.239,1.214,0.386
		c0.713,0.201,1.814,0.692,2.616,0.595c1.242-0.146,0.667-1.263,0.756-2.232c1.998-0.227,6.566,2.027,8.979,1.343
		c0.403-0.118,0.672-0.382,1.021-0.403c0.571,0.172,0.66,2.359,1.612,3.519c0.743,0.898,1.284,2.141,1.876,3.287
		c1.302,2.527,1.558,1.213,2.1,1.822c0.127,0.144,0.291,0.664,0.308,0.941c0.054,0.86-0.567,1.063-0.198,2.22
		c0.806,2.545,4.253,5.022,4.711,5.61c1.041,1.338,0.356,3.232,4.861,1.834c1.78-0.549,2.596-1.347,3.69-1.431
		c-0.075,0.305-0.336,0.515-0.517,0.754c-1.394,1.874-1.667,4.892-4.273,7.134c-1.138,0.974-2.171,1.306-4.245,3.316
		c-0.906,0.878-4.021,4.178-3.519,6.559c0.236,1.121,1.307,2.338,1.789,3.304c0.441,0.882,0.319,1.188,0,2.07
		c-0.428,1.184,0.118,1.41,0.398,1.835c-0.449,1.246-4.24,2.451-5.722,3.958c-1.101,1.126,0.986,2.628,0.877,4.177
		c-0.743,0.454-1.359,0.354-2.069,1.025c-1.31,1.239-0.546,3.614-3.548,5.756c-2.83,2.016-5.836,1.919-6.89,2.414
		c-1.143,0.537-1.406,0.849-1.928,1.121c-0.65-0.345-1.717-1.163-1.872-2.058c-0.121-0.705,0.307-1.016-0.024-1.633
		c-0.198-0.369-0.651-0.73-0.983-0.982c-2.758-2.082-1.956-3.099-1.696-5.567c0.251-2.376-1.579-3.035-2.175-5.676
		c-0.264-1.18-0.071-2.397,0.449-3.313c0.315-0.546,0.891-1.229,1.377-1.604c0.202-0.156,0.362-0.248,0.492-0.454
		c0.151-0.474-1.579-2.128-1.893-3.484c-0.357-1.527,0.852-2.2-1.272-3.964c-0.542-0.449-2.927-1.859-1.903-2.992
		c0.597-0.66,1.671-0.987-0.121-3.481c-1.708-2.381-2.002-0.579-3.745-1.491c-1.734-0.902-0.037-2.401-3.203-1.658
		c-1.243,0.293-3.132,0.974-4.438,0.916c-2.267-0.109-3.317-0.84-4.156,0.73c-0.999,0.009-2.292-0.6-2.926-1.037
		C6.436,29.08,5.202,27.945,5.101,27.346L5.101,27.346z"/>
	<path fill="#040482" d="M4.71,27.589c-0.172-0.173-0.273-0.37-0.378-0.576c-0.046-0.092-0.096-0.184-0.159-0.281
		c-0.479-0.655-1.029-0.937-1.449-1.154C2.498,25.464,2.3,25.36,2.133,25.225C2.09,25.2,2.078,25.191,2.066,25.184
		c-0.03-0.013-0.047-0.026-0.08-0.05c-0.718-0.089-0.777-0.659-0.869-1.55c-0.05-0.486-0.113-1.112-0.357-1.8v-0.004
		c-0.083-0.256-0.134-0.298-0.189-0.348c-0.08-0.077-0.172-0.156-0.294-0.35l-0.172-0.272l0.21-0.243
		c0.298-0.353,0.646-0.929,0.902-1.567c0.202-0.512,0.344-1.058,0.344-1.549c0-0.651,0.143-0.752,0.349-0.903
		c0.021-0.012,0.042-0.029,0.08-0.118v-0.004c0.084-0.192-0.105-0.327-0.344-0.433c-0.219-0.087-0.492-0.163-0.731-0.226
		c-0.302-0.084-0.563-0.152-0.727-0.27L0,15.359l0.012-0.235c0.017-0.441,0.689-1.55,1.482-2.646
		c0.831-1.146,1.822-2.326,2.338-2.724c0.386-0.31,0.823-0.52,1.276-0.73c0.222-0.106,0.445-0.21,0.664-0.333
		C7.662,7.576,7.667,6.87,7.67,6.06C7.675,5.837,7.675,5.607,7.7,5.368V5.363c0.055-0.504,0.198-0.945,0.403-1.306
		c0.223-0.39,0.525-0.693,0.882-0.882l0,0C9.417,2.932,9.715,2.89,10,2.849c0.273-0.043,0.525-0.081,0.941-0.463l0.264-0.247
		l0.29,0.213c0.21,0.156,0.391,0.282,0.588,0.336c0.197,0.055,0.445,0.05,0.827-0.046h0.008c0.613-0.143,1.264-0.411,1.969-0.706
		c0.865-0.36,1.809-0.751,2.913-1.012c0.688-0.172,1.601-0.247,2.482-0.319c0.532-0.046,1.058-0.088,1.481-0.147
		c0.105-0.017,0.357-0.063,0.625-0.109c1.101-0.188,2.616-0.449,3.426-0.391l0.235,0.017l0.118,0.21
		c0.126,0.231,0.261,0.608,0.34,0.982c0.075,0.328,0.109,0.671,0.071,0.941c-0.054,0.503-0.302,0.739-0.537,0.965
		c-0.109,0.101-0.21,0.198-0.219,0.315c-0.003,0.164,0.353,0.213,0.664,0.261c0.08,0.012,0.159,0.025,0.26,0.042
		c0.164,0.029,0.223,0.038,0.277,0.046c0.524,0.092,0.776,0.138,1.339-0.034l0.314-0.096l0.176,0.282
		c0.156,0.239,0.181,0.407,0.198,0.546c0.004,0.012,0.004,0.017,0.307,0.133c0.315,0.106,0.348,0.118,0.386,0.13
		c0.269,0.092,0.538,0.186,0.785,0.261l0,0c0.495,0.155,0.587,0.386,0.701,0.667c0.034,0.084,0.072,0.186,0.181,0.273l0.026,0.026
		c0.146,0.147,0.314,0.167,0.512,0.193c0.143,0.021,0.297,0.042,0.479,0.088l0.004,0.004c0.206,0.055,0.415,0.126,0.643,0.201
		c0.604,0.202,1.31,0.441,1.829,0.378h0.005c0.458-0.051,0.424-0.466,0.386-0.949c-0.024-0.285-0.05-0.584-0.017-0.903l0.034-0.357
		l0.356-0.033c0.924-0.093,2.275,0.273,3.729,0.667c1.86,0.508,3.9,1.063,5.169,0.698l0.017-0.005
		c0.13-0.034,0.256-0.096,0.382-0.164c0.213-0.109,0.42-0.215,0.705-0.244l0.084-0.004l0.08,0.021
		c0.495,0.147,0.688,0.79,0.928,1.591c0.21,0.693,0.461,1.536,0.906,2.086c0.635,0.777,1.134,1.768,1.634,2.758
		c0.097,0.193,0.192,0.382,0.293,0.58v0.004c0.731,1.436,0.979,1.423,1.181,1.415c0.272-0.017,0.512-0.03,0.818,0.319l0,0
		c0.113,0.114,0.228,0.344,0.303,0.58c0.07,0.223,0.121,0.47,0.125,0.646c0.026,0.429-0.079,0.714-0.184,0.995
		c-0.102,0.277-0.207,0.555-0.038,1.091c0.604,1.856,2.749,3.75,3.891,4.762c0.357,0.314,0.623,0.546,0.748,0.701l0.008,0.008
		c0.273,0.349,0.433,0.714,0.589,1.058c0.39,0.882,0.705,1.596,3.82,0.639l0,0c0.769-0.24,1.36-0.538,1.864-0.79
		c0.672-0.336,1.213-0.604,1.901-0.647l0.575-0.034l-0.126,0.563c-0.063,0.298-0.222,0.488-0.386,0.684
		c-0.056,0.067-0.114,0.139-0.164,0.214L64.5,24.771c-0.486,0.651-0.844,1.49-1.229,2.394c-0.672,1.579-1.419,3.337-3.12,4.803
		h-0.004c-0.429,0.365-0.835,0.638-1.284,0.936c-0.761,0.504-1.642,1.091-2.914,2.343l-0.004,0.004
		c-0.558,0.538-1.939,1.985-2.784,3.552c-0.482,0.898-0.785,1.826-0.621,2.606l0,0c0.131,0.631,0.6,1.35,1.037,2.017
		c0.269,0.411,0.525,0.802,0.705,1.176c0.538,1.036,0.407,1.389,0.046,2.359v-0.005l-0.024,0.071l0,0
		c-0.256,0.705-0.055,0.945,0.13,1.168c0.08,0.092,0.16,0.188,0.228,0.297l0.108,0.177l-0.067,0.197
		c-0.29,0.819-1.579,1.52-2.956,2.268c-1.078,0.588-2.217,1.205-2.854,1.855v0.005c-0.411,0.411-0.067,1.036,0.312,1.712
		c0.364,0.667,0.756,1.373,0.705,2.159l-0.013,0.229l-0.197,0.118c-0.357,0.218-0.672,0.319-0.974,0.42
		c-0.357,0.113-0.693,0.228-1.029,0.546c-0.429,0.406-0.613,1.008-0.818,1.691c-0.383,1.243-0.832,2.722-2.792,4.119
		c-2.041,1.448-4.132,1.839-5.593,2.116c-0.604,0.113-1.096,0.205-1.369,0.331l0,0c-0.654,0.312-1.003,0.546-1.292,0.743
		c-0.201,0.139-0.374,0.257-0.613,0.373l-0.193,0.097l-0.196-0.097c-0.417-0.205-0.971-0.587-1.403-1.058
		c-0.348-0.382-0.625-0.822-0.714-1.297v-0.004c-0.071-0.403-0.013-0.685,0.043-0.94c0.041-0.198,0.079-0.37-0.031-0.58l0,0
		c-0.075-0.138-0.205-0.28-0.348-0.423c-0.163-0.16-0.336-0.304-0.483-0.421c-2.519-1.889-2.343-2.984-2.044-4.837
		c0.05-0.335,0.109-0.692,0.155-1.104l0,0c0.13-1.171-0.34-1.902-0.877-2.738c-0.483-0.742-1.012-1.565-1.294-2.824l0,0
		c-0.143-0.622-0.159-1.256-0.075-1.864c0.089-0.63,0.29-1.23,0.584-1.747c0.163-0.289,0.403-0.617,0.667-0.928
		c0.26-0.303,0.555-0.596,0.828-0.814l0.024-0.021l0.055-0.032c0.097-0.064,0.18-0.123,0.247-0.186
		c-0.067-0.121-0.319-0.479-0.613-0.898c-0.495-0.697-1.091-1.541-1.285-2.343v-0.004c-0.138-0.575-0.083-1.021-0.029-1.444
		c0.08-0.667,0.156-1.256-1.079-2.275l0,0c-0.071-0.063-0.189-0.147-0.327-0.244c-0.273-0.201-0.63-0.453-0.961-0.747
		c-0.84-0.747-1.507-1.7-0.672-2.637v-0.004c0.083-0.097,0.193-0.193,0.298-0.294c0.432-0.399,0.874-0.806-0.457-2.62V32.22
		c-0.878-1.213-1.277-1.155-1.76-1.079c-0.479,0.067-1.007,0.147-1.818-0.273l0,0c-0.843-0.445-1.028-0.986-1.175-1.431
		c-0.113-0.34-0.19-0.563-1.722-0.21c-0.331,0.075-0.705,0.18-1.096,0.293c-1.133,0.323-2.439,0.693-3.48,0.639
		c-0.613-0.026-1.129-0.096-1.583-0.156c-1.066-0.143-1.679-0.227-2.17,0.655l-0.126,0.227H9.85c-0.483,0-1.02-0.121-1.533-0.297
		c-0.638-0.223-1.247-0.538-1.642-0.794L6.659,29.78c-0.29-0.206-0.877-0.722-1.323-1.234C5.051,28.223,4.815,27.882,4.71,27.589
		L4.71,27.589z M5.109,26.615c0.08,0.159,0.159,0.315,0.252,0.383l0.143,0.104l0.025,0.172c0.025,0.156,0.218,0.416,0.461,0.697
		c0.399,0.457,0.916,0.911,1.171,1.096c0.349,0.222,0.878,0.495,1.444,0.692c0.336,0.118,0.685,0.207,1.003,0.239
		c0.739-1.154,1.558-1.044,2.91-0.865c0.433,0.06,0.932,0.127,1.507,0.152l0,0c0.895,0.046,2.129-0.302,3.199-0.609
		c0.411-0.113,0.797-0.222,1.133-0.302h0.004c2.306-0.529,2.482-0.009,2.746,0.785c0.101,0.294,0.222,0.655,0.756,0.936
		c0.555,0.287,0.937,0.227,1.285,0.176c0.764-0.112,1.403-0.208,2.591,1.437l0,0c1.788,2.439,1.058,3.116,0.344,3.779
		c-0.08,0.071-0.16,0.146-0.239,0.235l0,0c-0.353,0.402,0.089,0.944,0.601,1.402c0.297,0.264,0.633,0.503,0.889,0.691
		c0.156,0.11,0.282,0.202,0.374,0.277h0.004c1.604,1.331,1.503,2.142,1.389,3.058c-0.046,0.353-0.092,0.722,0.009,1.138
		c0.155,0.638,0.701,1.405,1.15,2.044c0.483,0.681,0.877,1.238,0.76,1.666l-0.017,0.072l-0.043,0.059
		c-0.167,0.256-0.348,0.374-0.566,0.517l-0.042,0.029c-0.218,0.176-0.458,0.42-0.684,0.685c-0.227,0.264-0.433,0.546-0.567,0.785
		l-0.004,0.005c-0.239,0.423-0.403,0.915-0.479,1.435c-0.071,0.505-0.054,1.033,0.063,1.55v0.004
		c0.248,1.101,0.734,1.856,1.176,2.545c0.625,0.974,1.176,1.825,1.012,3.304c-0.046,0.411-0.106,0.793-0.164,1.142
		c-0.244,1.527-0.386,2.431,1.705,4.001l0.012,0.009c0.177,0.143,0.378,0.311,0.558,0.487c0.202,0.193,0.387,0.411,0.509,0.634
		l0.004,0.008c0.26,0.491,0.189,0.811,0.113,1.168c-0.037,0.181-0.08,0.374-0.037,0.604c0.054,0.295,0.247,0.592,0.5,0.865
		c0.289,0.315,0.646,0.584,0.947,0.765c0.105-0.063,0.207-0.135,0.32-0.21c0.31-0.215,0.691-0.475,1.41-0.811l0,0
		c0.378-0.177,0.916-0.276,1.583-0.403c1.381-0.26,3.362-0.634,5.243-1.965c1.722-1.23,2.125-2.552,2.461-3.665
		c0.248-0.802,0.461-1.507,1.053-2.07c0.479-0.457,0.912-0.596,1.361-0.743c0.188-0.063,0.382-0.126,0.578-0.218
		c-0.054-0.471-0.331-0.974-0.595-1.457c-0.542-0.975-1.042-1.876-0.164-2.754l0,0c0.727-0.739,1.923-1.39,3.056-2.003
		c1.079-0.587,2.096-1.138,2.444-1.604l-0.008-0.008c-0.341-0.408-0.706-0.85-0.282-2.028v-0.005l0.025-0.07l0,0
		c0.265-0.705,0.356-0.962,0-1.654l-0.009-0.013c-0.15-0.319-0.398-0.692-0.654-1.083c-0.479-0.73-0.995-1.52-1.159-2.318
		c-0.21-1.011,0.14-2.136,0.71-3.198c0.894-1.667,2.354-3.2,2.942-3.767c1.335-1.314,2.255-1.923,3.044-2.447
		c0.425-0.286,0.814-0.542,1.196-0.87l0,0c1.555-1.335,2.26-2.993,2.894-4.483c0.356-0.845,0.697-1.638,1.158-2.327
		c-0.164,0.077-0.336,0.16-0.517,0.253c-0.533,0.264-1.149,0.575-1.994,0.839h-0.004c-3.854,1.185-4.313,0.151-4.875-1.121
		c-0.13-0.29-0.269-0.6-0.479-0.868c-0.084-0.101-0.323-0.315-0.646-0.601c-1.204-1.063-3.468-3.065-4.143-5.147l-0.005-0.004
		c-0.256-0.819-0.101-1.239,0.055-1.659c0.075-0.193,0.146-0.39,0.126-0.65v-0.029c0-0.092-0.033-0.244-0.079-0.386
		c-0.039-0.118-0.077-0.214-0.089-0.227l-0.025-0.029c-0.038-0.043-0.079-0.043-0.135-0.039c-0.453,0.021-1.016,0.051-1.997-1.893
		c-0.097-0.185-0.198-0.387-0.299-0.584c-0.479-0.948-0.962-1.901-1.532-2.607h-0.005c-0.55-0.684-0.831-1.616-1.058-2.381
		c-0.135-0.449-0.248-0.827-0.307-0.957c-0.079,0.029-0.168,0.075-0.256,0.121C45.2,6.61,45.028,6.698,44.805,6.757
		c-1.499,0.432-3.665-0.16-5.639-0.693c-1.163-0.319-2.254-0.617-3.022-0.655c0.004,0.121,0.012,0.244,0.025,0.365
		c0.075,0.932,0.138,1.743-1.163,1.886l0,0c-0.706,0.084-1.516-0.185-2.208-0.416c-0.219-0.076-0.429-0.144-0.592-0.19l0,0
		c-0.135-0.037-0.256-0.049-0.369-0.066c-0.365-0.051-0.664-0.089-1.017-0.441c-0.251-0.218-0.331-0.42-0.403-0.601
		c-0.024-0.063-0.046-0.121-0.147-0.15l0,0c-0.319-0.101-0.563-0.185-0.81-0.269c-0.219-0.072-0.328-0.113-0.382-0.13l-0.021-0.009
		c-0.714-0.273-0.811-0.461-0.857-0.739c-0.491,0.101-0.802,0.046-1.326-0.046l-0.282-0.05c-0.054-0.008-0.143-0.02-0.235-0.034
		c-0.676-0.1-1.452-0.218-1.406-1.175l0,0c0.025-0.462,0.251-0.681,0.486-0.903c0.127-0.118,0.256-0.244,0.273-0.437l0.004-0.021
		c0.021-0.151-0.008-0.387-0.058-0.626V1.354c-0.043-0.19-0.101-0.374-0.156-0.526c-0.764,0.009-2.022,0.223-2.964,0.386
		c-0.193,0.034-0.374,0.063-0.642,0.109h-0.008c-0.479,0.067-1,0.11-1.529,0.156c-0.857,0.071-1.734,0.143-2.352,0.298h-0.008
		c-1.037,0.244-1.944,0.621-2.78,0.97c-0.73,0.302-1.41,0.583-2.094,0.747c-0.546,0.135-0.937,0.13-1.277,0.039
		c-0.223-0.063-0.407-0.16-0.587-0.278c-0.462,0.357-0.79,0.408-1.134,0.458c-0.21,0.029-0.432,0.063-0.718,0.23L9.392,3.953
		c-0.206,0.109-0.386,0.293-0.53,0.541C8.716,4.754,8.611,5.081,8.569,5.459c-0.021,0.21-0.021,0.407-0.025,0.604
		C8.54,7.143,8.535,8.08,6.214,9.448L6.201,9.457C5.961,9.587,5.723,9.7,5.483,9.813c-0.408,0.193-0.798,0.377-1.096,0.621
		L4.37,10.442c-0.444,0.336-1.368,1.449-2.166,2.549c-0.546,0.751-1.021,1.474-1.222,1.885l0.16,0.042
		c0.26,0.072,0.558,0.151,0.839,0.273c0.676,0.286,1.167,0.735,0.819,1.566l0,0c-0.13,0.319-0.265,0.42-0.382,0.5
		c-0.008,0.008,0.016-0.014,0.016,0.193c0,0.604-0.163,1.264-0.407,1.873c-0.227,0.57-0.525,1.104-0.814,1.507
		c0.122,0.118,0.235,0.251,0.374,0.667l0,0c0.277,0.786,0.344,1.466,0.403,1.999c0.046,0.483,0.08,0.773,0.205,0.773h0.219
		l0.139,0.188c0.021,0.013,0.05,0.029,0.083,0.051l0.021,0.017l0.021,0.017c0.097,0.08,0.256,0.163,0.445,0.259
		c0.508,0.261,1.163,0.601,1.768,1.432l0.012,0.012C4.979,26.358,5.042,26.489,5.109,26.615L5.109,26.615z"/>
	<path fill-rule="evenodd" clip-rule="evenodd" fill="#F74600" d="M18.658,22.513c0.688-0.147,0.671-0.218,0.982-0.659
		c0.076,0.697,0.08,1.444,0.147,2.154c0.071,0.718,0.15,1.432,0.213,2.149c0.109,1.179,1.029,12.901,1.091,12.974
		c0.294,0.18,1.113-0.043,1.5-0.072c1.86-0.151,3.002-0.285,4.883-0.521c1.271-0.159,5.222-0.499,6.234-0.071
		c-1.058,0.071-2.061,0.273-3.123,0.374c-1.096,0.104-2.209,0.18-3.308,0.269c-1.075,0.088-2.145,0.18-3.225,0.264
		c-1.058,0.089-2.25,0.239-3.292,0.266c-0.101-1.415-0.336-2.91-0.5-4.313c-0.357-2.972-0.734-5.533-1.154-8.459
		C18.952,25.792,18.574,23.554,18.658,22.513L18.658,22.513z M19.774,21.161l1.024-0.013c0.047,1.482,0.081,2.867,0.185,4.341
		c0.097,1.412,0.223,2.793,0.29,4.211c0.104,2.234,0.231,6.381,0.684,8.405c1.101,0.029,2.444-0.269,3.569-0.403
		c2.536-0.31,7.389-0.91,9.513,0.497l0.261,0.218c-2.855-0.319-3.627-0.567-6.768-0.239c-1.898,0.192-3.473,0.432-5.458,0.604
		c-0.572,0.051-1.28,0.189-1.797,0.21c-0.051-1.511-0.222-2.968-0.353-4.45c-0.135-1.507-0.239-3.002-0.362-4.5l-0.604-6.591
		C19.892,22.82,19.74,21.766,19.774,21.161L19.774,21.161z M34.617,28.798c0.385,3.187,0.754,6.475,1.171,9.636
		c-0.337-0.29-0.466-0.387-0.958-0.638c-1.439-0.739-3.342-0.736-5.009-0.693c-1.31,0.038-2.594,0.167-3.896,0.341
		c-1.234,0.159-2.574,0.469-3.778,0.423c-0.144-1.423-0.349-2.787-0.437-4.277c-0.088-1.474-0.139-2.956-0.222-4.43
		c-0.076-1.297-0.613-8.195-0.471-8.883c3.266-0.437,7.83-0.815,10.685,0.042c0.659,0.198,1.39,0.445,1.78,0.81
		c0.029,0.168,0.093,0.383,0.113,0.651L34.617,28.798z M34.049,21.351c0.021-0.173,0.021-0.277,0.135-0.399
		c0.339-0.353,0.855-0.709,1.305-0.957c2.427-1.318,8.032-2.582,10.938-2.019c0.462,0.087,0.739,0.038,0.836,0.504
		c0.545,2.578,0.935,4.35,1.384,7.07c0.421,2.543,0.718,4.698,1.215,7.255c0.159,0.831,0.369,1.524,0.563,2.279
		c-2.566-0.055-9.132,0.597-11.664,1.624c-0.524,0.215-1.012,0.483-1.411,0.765c-0.406,0.252-0.579,0.491-0.961,0.865
		C36.153,35.566,34.125,22.492,34.049,21.351L34.049,21.351z M48.226,19.071l0.497,0.013c0.079,0.188,0.318,1.86,0.382,2.212
		c0.138,0.739,0.264,1.453,0.372,2.208c0.228,1.524,0.449,2.96,0.833,4.375c0.369,1.373,0.746,2.699,1.104,4.089
		c0.269,1.049,0.474,2.002,0.818,3.036c0.114,0.331,0.277,0.654,0.37,0.974c-0.403,0.256-1.21,0.172-1.727,0.243
		c-3.043,0.424-5.937,0.6-8.917,0.911c-0.592,0.063-1.154,0.13-1.738,0.215c-0.559,0.083-1.175,0.229-1.679,0.297
		c2.879-1.427,6.528-1.435,9.698-1.658c0.597-0.042,1.188-0.104,1.783-0.15c0.521-0.043,1.248,0.024,1.643-0.277
		c0.017-0.198-0.201-0.705-0.269-0.971c-0.533-2.099-1.159-5.021-1.566-7.111c-0.276-1.415-0.453-2.852-0.696-4.278
		C48.895,21.787,48.554,20.431,48.226,19.071L48.226,19.071z M39.607,36.973c-1.443,0.499-1.969,1.045-2.938,1.432
		c0.386-0.412,0.788-0.756,1.288-1.041c0.546-0.307,1.021-0.509,1.671-0.71c1.856-0.579,6.432-1.151,8.418-1.243
		c2.977-0.138,2.742,0.067,2.49-0.718c-0.613-1.906-1.222-6.373-1.558-8.527c-0.261-1.679-0.673-4.03-1.05-5.688
		c-0.139-0.604-0.332-1.213-0.449-1.805l0.415,0.008c0.156,0.676,0.391,1.323,0.541,2.024c0.505,2.342,0.688,4.345,1.118,6.533
		c0.276,1.423,0.574,2.829,0.902,4.207c0.21,0.868,0.771,3.278,1.054,3.966c-0.391,0.253-1.444,0.197-2.02,0.253
		c-0.692,0.07-1.378,0.126-2.074,0.172C44.823,35.999,42.114,36.104,39.607,36.973L39.607,36.973z M19.421,20.91
		c-0.138,0.634,0.017,1.045-0.671,1.205c-0.37,0.084-0.416,0.138-0.382,0.521c0.113,1.338,0.206,2.694,0.394,4.013
		c0.458,3.166,0.806,6.356,1.202,9.534c0.126,1.008,0.327,2.149,0.386,3.145c0.049,0.853,0.31,0.739,1.087,0.672
		c0.57-0.05,1.154-0.104,1.737-0.159l7.049-0.58c2.188-0.184,2.843-0.587,5.038-0.285c0.811,0.113,0.688,0.231,1.432-0.13
		c3.111-1.503,6.172-1.344,9.711-1.721c1.205-0.13,5.853-0.571,6.709-0.883c-0.051-0.298-0.277-0.759-0.369-1.007
		c-0.36-0.945-0.643-2.158-0.898-3.149c-0.954-3.703-1.377-4.777-2.023-8.804L48.95,18.76c-0.227-0.05-0.366-0.021-0.56-0.05
		c-0.227-0.034-0.1-0.117-0.184-0.365l-0.58-0.021c-0.202-0.597-0.601-0.747-1.318-0.802c-0.667-0.05-1.343-0.101-2.031-0.075
		c-2.402,0.084-5.518,0.773-7.75,1.684c-1.34,0.546-1.823,0.882-2.68,1.801l-0.05,0.051c-1.251-1.101-3.519-1.545-5.769-1.563
		c-1.217-0.012-6.465,0.189-7.393,0.554l-0.026,0.794C20.22,20.784,19.711,20.712,19.421,20.91L19.421,20.91z"/>
	<path fill-rule="evenodd" clip-rule="evenodd" fill="#FFFFFF" d="M35.788,38.434c-0.417-3.161-0.786-6.449-1.171-9.636
		l-1.021-7.019c-0.021-0.269-0.084-0.483-0.113-0.651c-0.39-0.365-1.121-0.612-1.78-0.81c-2.855-0.856-7.419-0.478-10.685-0.042
		c-0.143,0.688,0.395,7.586,0.471,8.883c0.083,1.474,0.134,2.956,0.222,4.43c0.088,1.49,0.293,2.854,0.437,4.277
		c1.204,0.046,2.544-0.264,3.778-0.423c1.302-0.174,2.586-0.303,3.896-0.341c1.667-0.043,3.569-0.046,5.009,0.693
		C35.322,38.047,35.451,38.144,35.788,38.434L35.788,38.434z"/>
	<g>
		<defs>
			<path id="SVGID_1_" d="M35.788,38.434c-0.417-3.161-0.786-6.449-1.171-9.636l-1.021-7.019c-0.021-0.269-0.084-0.483-0.113-0.651
				c-0.39-0.365-1.121-0.612-1.78-0.81c-2.855-0.856-7.419-0.478-10.685-0.042c-0.143,0.688,0.395,7.586,0.471,8.883
				c0.083,1.474,0.134,2.956,0.222,4.43c0.088,1.49,0.293,2.854,0.437,4.277c1.204,0.046,2.544-0.264,3.778-0.423
				c1.302-0.174,2.586-0.303,3.896-0.341c1.667-0.043,3.569-0.046,5.009,0.693C35.322,38.047,35.451,38.144,35.788,38.434
				L35.788,38.434z"/>
		</defs>
		<clipPath id="SVGID_2_">
			<use xlink:href="#SVGID_1_"  overflow="visible"/>
		</clipPath>
		<path clip-path="url(#SVGID_2_)" d="M21.857,21.9c1.578-0.382,3.85-0.499,6.045-0.382c2.078,0.113,4.081,0.461,5.272,1
			L33.1,22.673c-1.154-0.542-3.12-0.886-5.197-1.003c-2.196-0.114-4.468,0-6.008,0.386L21.857,21.9z"/>
		<path clip-path="url(#SVGID_2_)" d="M22.163,24.251c1.654-0.348,3.7-0.386,5.702-0.193c2.041,0.193,4.082,0.655,5.581,1.234
			l-0.038,0.151c-1.5-0.612-3.501-1.037-5.584-1.23c-1.96-0.193-4.006-0.155-5.622,0.152L22.163,24.251z"/>
		<path clip-path="url(#SVGID_2_)" d="M33.637,28.181c-1.81-0.697-3.812-1.079-5.621-1.272c-2.347-0.193-4.467-0.038-5.697,0.231
			l-0.042-0.118c1.235-0.306,3.351-0.461,5.74-0.231c1.847,0.156,3.85,0.542,5.663,1.234L33.637,28.181z"/>
		<path clip-path="url(#SVGID_2_)" d="M33.562,30.565c-1.771-0.575-3.775-0.923-5.659-1.037c-1.927-0.156-3.813,0-5.315,0.344
			l-0.038-0.113c1.541-0.387,3.388-0.503,5.354-0.387c1.922,0.114,3.925,0.463,5.734,1.08L33.562,30.565z"/>
		<path clip-path="url(#SVGID_2_)" d="M34.292,35.536c-1.079-0.616-3.001-0.848-5.081-0.848c-2.237,0.038-4.584,0.383-6.238,0.999
			l-0.042-0.113c1.658-0.616,4.043-1.003,6.28-1.003c2.079-0.038,4.043,0.23,5.161,0.81L34.292,35.536z"/>
		<path clip-path="url(#SVGID_2_)" d="M34.024,32.917c-1.692-0.542-3.657-0.811-5.584-0.848c-2.116-0.039-4.236,0.155-5.814,0.578
			l-0.038-0.155c1.616-0.423,3.695-0.617,5.89-0.58c1.889,0.08,3.892,0.311,5.583,0.886L34.024,32.917z"/>
	</g>
	<path fill-rule="evenodd" clip-rule="evenodd" fill="#FFFFFF" d="M34.049,21.351c0.075,1.141,2.104,14.216,2.338,16.986
		c0.382-0.374,0.555-0.613,0.961-0.865c0.399-0.281,0.887-0.55,1.411-0.765c2.532-1.027,9.098-1.679,11.664-1.624
		c-0.193-0.755-0.403-1.448-0.563-2.279c-0.497-2.557-0.794-4.711-1.215-7.255c-0.449-2.72-0.839-4.492-1.384-7.07
		c-0.097-0.466-0.374-0.417-0.836-0.504c-2.905-0.563-8.511,0.701-10.938,2.019c-0.449,0.248-0.966,0.604-1.305,0.957
		C34.071,21.073,34.071,21.178,34.049,21.351L34.049,21.351z"/>
	<g>
		<defs>
			<path id="SVGID_3_" d="M34.049,21.351c0.075,1.141,2.104,14.216,2.338,16.986c0.382-0.374,0.555-0.613,0.961-0.865
				c0.399-0.281,0.887-0.55,1.411-0.765c2.532-1.027,9.098-1.679,11.664-1.624c-0.193-0.755-0.403-1.448-0.563-2.279
				c-0.497-2.557-0.794-4.711-1.215-7.255c-0.449-2.72-0.839-4.492-1.384-7.07c-0.097-0.466-0.374-0.417-0.836-0.504
				c-2.905-0.563-8.511,0.701-10.938,2.019c-0.449,0.248-0.966,0.604-1.305,0.957C34.071,21.073,34.071,21.178,34.049,21.351
				L34.049,21.351z"/>
		</defs>
		<clipPath id="SVGID_4_">
			<use xlink:href="#SVGID_3_"  overflow="visible"/>
		</clipPath>
		<path clip-path="url(#SVGID_4_)" d="M46.62,19.554c-1.621-0.038-3.854,0.306-5.934,0.885c-1.964,0.576-3.773,1.311-4.772,2.117
			l-0.08-0.113c1.003-0.811,2.851-1.579,4.815-2.12c2.116-0.613,4.35-0.961,5.971-0.924V19.554z"/>
		<path clip-path="url(#SVGID_4_)" d="M46.849,21.9c-1.657,0.043-3.622,0.425-5.47,1.041c-1.965,0.618-3.812,1.466-5.084,2.389
			l-0.113-0.117c1.348-0.924,3.194-1.809,5.159-2.427c1.886-0.613,3.851-1,5.508-1.037V21.9z"/>
		<path clip-path="url(#SVGID_4_)" d="M36.606,27.95c1.616-1.079,3.426-1.889,5.159-2.427c2.234-0.734,4.35-1.041,5.622-1.003v0.118
			c-1.272,0-3.35,0.305-5.583,0.998c-1.734,0.542-3.544,1.348-5.123,2.427L36.606,27.95z"/>
		<path clip-path="url(#SVGID_4_)" d="M37.218,30.297c1.621-0.961,3.468-1.734,5.315-2.272c1.848-0.541,3.661-0.81,5.202-0.73v0.114
			c-1.541-0.039-3.313,0.23-5.164,0.772c-1.81,0.5-3.656,1.305-5.273,2.234L37.218,30.297z"/>
		<path clip-path="url(#SVGID_4_)" d="M37.681,35.381c0.89-0.848,2.736-1.541,4.739-1.964c2.154-0.425,4.543-0.618,6.314-0.387
			l-0.038,0.155c-1.733-0.231-4.081-0.075-6.238,0.386c-2.002,0.423-3.812,1.075-4.697,1.922L37.681,35.381z"/>
		<path clip-path="url(#SVGID_4_)" d="M37.375,32.686c1.503-0.886,3.312-1.579,5.159-2.041c2.082-0.503,4.161-0.734,5.777-0.696
			v0.155c-1.616-0.075-3.695,0.155-5.739,0.693c-1.81,0.461-3.656,1.116-5.122,2.041L37.375,32.686z"/>
	</g>
	<path fill-rule="evenodd" clip-rule="evenodd" fill="#FFFFFF" d="M19.788,24.008c-0.067-0.709-0.072-1.457-0.147-2.154
		c-0.311,0.441-0.294,0.512-0.982,0.659c-0.084,1.041,0.294,3.279,0.449,4.354c0.42,2.926,0.797,5.487,1.154,8.459
		c0.164,1.402,0.399,2.897,0.5,4.313c1.041-0.026,2.234-0.177,3.292-0.266c1.08-0.084,2.149-0.176,3.225-0.264
		c1.099-0.089,2.212-0.164,3.308-0.269c1.063-0.101,2.065-0.303,3.123-0.374c-1.012-0.428-4.962-0.088-6.234,0.071
		c-1.881,0.235-3.023,0.369-4.883,0.521c-0.386,0.029-1.205,0.252-1.5,0.072c-0.063-0.072-0.982-11.794-1.091-12.974
		C19.938,25.44,19.858,24.726,19.788,24.008L19.788,24.008z"/>
	<path fill-rule="evenodd" clip-rule="evenodd" fill="#FFFFFF" d="M19.774,21.161c-0.034,0.605,0.118,1.659,0.186,2.289l0.604,6.591
		c0.123,1.498,0.227,2.993,0.362,4.5c0.13,1.482,0.302,2.939,0.353,4.45c0.517-0.021,1.225-0.159,1.797-0.21
		c1.985-0.172,3.56-0.411,5.458-0.604c3.14-0.328,3.913-0.08,6.768,0.239l-0.261-0.218c-2.124-1.407-6.978-0.807-9.513-0.497
		c-1.125,0.135-2.469,0.433-3.569,0.403c-0.452-2.023-0.579-6.171-0.684-8.405c-0.067-1.418-0.193-2.8-0.29-4.211
		c-0.104-1.474-0.138-2.858-0.185-4.341L19.774,21.161z"/>
	<path fill-rule="evenodd" clip-rule="evenodd" fill="#FFFFFF" d="M51.397,34.587c0.067,0.27,0.285,0.772,0.269,0.971
		c-0.395,0.302-1.121,0.234-1.643,0.277c-0.595,0.046-1.187,0.108-1.783,0.15c-3.17,0.224-6.819,0.231-9.698,1.658
		c0.504-0.067,1.12-0.214,1.679-0.297c0.584-0.085,1.146-0.152,1.738-0.215c2.98-0.312,5.874-0.487,8.917-0.911
		c0.517-0.071,1.323,0.013,1.727-0.243c-0.093-0.319-0.256-0.643-0.37-0.974c-0.345-1.033-0.55-1.987-0.818-3.036
		c-0.357-1.391-0.734-2.717-1.104-4.089c-0.384-1.415-0.605-2.851-0.833-4.375c-0.108-0.755-0.234-1.469-0.372-2.208
		c-0.063-0.353-0.303-2.024-0.382-2.212l-0.497-0.013c0.328,1.36,0.669,2.716,0.908,4.127c0.243,1.426,0.42,2.863,0.696,4.278
		C50.238,29.566,50.864,32.488,51.397,34.587L51.397,34.587z"/>
	<path fill-rule="evenodd" clip-rule="evenodd" fill="#FFFFFF" d="M51.51,35.41c-0.282-0.688-0.844-3.099-1.054-3.966
		c-0.328-1.378-0.626-2.784-0.902-4.207c-0.43-2.188-0.613-4.19-1.118-6.533c-0.15-0.701-0.385-1.348-0.541-2.024l-0.415-0.008
		c0.117,0.592,0.311,1.201,0.449,1.805c0.377,1.659,0.789,4.009,1.05,5.688c0.336,2.154,0.944,6.621,1.558,8.527
		c0.252,0.785,0.486,0.58-2.49,0.718c-1.986,0.092-6.562,0.664-8.418,1.243c-0.65,0.201-1.125,0.403-1.671,0.71
		c-0.5,0.285-0.902,0.629-1.288,1.041c0.969-0.387,1.494-0.933,2.938-1.432c2.507-0.869,5.216-0.974,7.81-1.138
		c0.696-0.046,1.382-0.102,2.074-0.172C50.066,35.607,51.12,35.663,51.51,35.41L51.51,35.41z"/>
	<path fill-rule="evenodd" clip-rule="evenodd" fill="#040482" d="M23.175,28.604c-0.314-0.08-0.894-0.469-1.107-0.633
		c-1.067-0.806-1.864-1.936-2.171-3.376c-0.302-1.411-0.029-2.988,0.688-4.13c0.172-0.265,0.5-0.782,0.768-0.983
		c0.008-0.017-0.004-0.004,0.025-0.042c0.004-0.004,0.017-0.021,0.021-0.029c0.026-0.026,0.034-0.034,0.055-0.055l0.407-0.362
		c1.507-1.234,3.56-1.607,5.378-1.003c1.621,0.534,3.313,1.927,3.799,4.227c0.828,3.917-2.539,7.453-6.49,6.806
		c-0.29-0.046-1.054-0.239-1.319-0.382L23.175,28.604z M33.079,17.547c0.113,0.365,0.521,0.986,0.85,1.046
		c0.158,0.024,0.31-0.114,0.439-0.193c1.575-1.012,3.157-2.05,4.736-3.04c1.063-0.659,2.099-1.34,3.149-2.015
		c0.528-0.345,1.049-0.676,1.574-1.012c0.718-0.454,1.259-0.601,0.919-1.461c-0.189-0.479-0.84-1.285-1.406-0.954l-10.186,7.163
		C33.008,17.19,33.02,17.345,33.079,17.547L33.079,17.547z M33.537,18.709c-0.088-0.126-0.243-0.223-0.424-0.496
		c-0.126-0.188-0.239-0.529-0.327-0.654l-2.112,1.369c-0.201-0.236-0.42-0.454-0.621-0.639c-2.292-2.087-6.105-2.473-8.783-0.377
		c-0.621,0.491-0.66,0.587-1.109,1.058c-0.377,0.395-0.886,1.306-1.104,1.835c-0.524,1.309-0.659,2.838-0.29,4.261
		c0.34,1.326,1.07,2.553,2.036,3.408c0.433,0.387,0.534,0.437,0.97,0.736c1.436,0.974,3.551,1.305,5.353,0.848
		c1.516-0.386,2.885-1.301,3.774-2.506c0.118-0.155,0.252-0.319,0.353-0.496c0.475-0.848,0.714-1.285,0.927-2.326
		c0.333-1.628,0.046-3.241-0.722-4.644L33.537,18.709z"/>
	<g>
		<defs>
			<path id="SVGID_5_" d="M19.896,24.595c0.307,1.44,1.104,2.57,2.171,3.376c0.213,0.164,0.793,0.554,1.107,0.633l0.055,0.038
				c0.265,0.143,1.029,0.336,1.319,0.382c3.951,0.647,7.317-2.888,6.49-6.806c-0.486-2.3-2.179-3.693-3.799-4.227
				c-1.818-0.604-3.871-0.231-5.378,1.003l-0.407,0.362c-0.021,0.021-0.029,0.029-0.055,0.055c-0.004,0.008-0.017,0.025-0.021,0.029
				c-0.029,0.037-0.017,0.025-0.025,0.042c-0.269,0.201-0.596,0.718-0.768,0.983C19.867,21.607,19.594,23.185,19.896,24.595
				L19.896,24.595z"/>
		</defs>
		<clipPath id="SVGID_6_">
			<use xlink:href="#SVGID_5_"  overflow="visible"/>
		</clipPath>
		<g transform="matrix(1 0 0 1 -1.907349e-006 0)" clip-path="url(#SVGID_6_)">
			
				<image overflow="visible" width="322" height="319" xlink:href="7907D087.jpg"  transform="matrix(0.0359 0 0 -0.0358 19.7056 29.147)">
			</image>
		</g>
	</g>
	<g>
		<defs>
			<path id="SVGID_7_" d="M19.896,24.595c0.307,1.44,1.104,2.57,2.171,3.376c0.213,0.164,0.793,0.554,1.107,0.633l0.055,0.038
				c0.265,0.143,1.029,0.336,1.319,0.382c3.951,0.647,7.317-2.888,6.49-6.806c-0.486-2.3-2.179-3.693-3.799-4.227
				c-1.818-0.604-3.871-0.231-5.378,1.003l-0.407,0.362c-0.021,0.021-0.029,0.029-0.055,0.055c-0.004,0.008-0.017,0.025-0.021,0.029
				c-0.029,0.037-0.017,0.025-0.025,0.042c-0.269,0.201-0.596,0.718-0.768,0.983C19.867,21.607,19.594,23.185,19.896,24.595
				L19.896,24.595z"/>
		</defs>
		<clipPath id="SVGID_8_">
			<use xlink:href="#SVGID_7_"  overflow="visible"/>
		</clipPath>
		<path clip-path="url(#SVGID_8_)" d="M21.584,21.787c1.583-0.385,3.891-0.499,6.087-0.385c2.116,0.117,4.119,0.461,5.354,1.041
			l-0.156,0.269c-1.154-0.58-3.119-0.924-5.197-1.041c-2.196-0.114-4.466,0.042-6.007,0.423L21.584,21.787z"/>
		<path clip-path="url(#SVGID_8_)" d="M21.97,24.096c1.617-0.306,3.658-0.344,5.702-0.151c2.079,0.189,4.119,0.613,5.622,1.268
			l-0.118,0.269c-1.461-0.613-3.5-1.075-5.545-1.268c-2.002-0.193-4.006-0.155-5.622,0.193L21.97,24.096z"/>
		<path clip-path="url(#SVGID_8_)" d="M33.369,28.181c-1.771-0.697-3.736-1.079-5.584-1.272c-2.347-0.193-4.429-0.038-5.659,0.269
			l-0.08-0.307c1.272-0.31,3.392-0.461,5.777-0.23c1.852,0.151,3.85,0.537,5.664,1.268L33.369,28.181z"/>
	</g>
	<path fill="#F74600" d="M32.146,43.09v-0.336h-0.13l0.059-0.164h0.537l0.055,0.164h-0.125v0.336h0.698v-0.336h-0.156l-0.474-1.345
		h-0.534l-0.47,1.345H31.45v0.336H32.146z M32.16,42.317l0.18-0.542l0.181,0.542H32.16z M33.332,42.317h0.172v0.474h-0.169v0.299
		h0.782v-0.299h-0.215v-0.474h0.248v-0.295h-0.248v-0.146c0-0.168,0.059-0.227,0.159-0.227c0.067,0,0.193,0.037,0.231,0.055
		l0.042-0.344c-0.059-0.026-0.218-0.072-0.349-0.072c-0.307,0-0.482,0.164-0.482,0.592v0.143h-0.172V42.317z M34.322,41.793v0.293
		h0.147v0.705h-0.147v0.299h0.696v-0.299h-0.15V42.59c0.029-0.29,0.193-0.437,0.425-0.437c0.024,0,0.046,0.004,0.075,0.009v-0.391
		c-0.021,0-0.038,0-0.055,0c-0.201,0-0.344,0.104-0.445,0.256v-0.234H34.322z M35.438,42.086h0.152v0.705h-0.152v0.299h0.706v-0.299
		h-0.151v-0.998h-0.555V42.086z M35.779,41.667c0.164,0,0.272-0.064,0.272-0.202c0-0.139-0.108-0.206-0.272-0.206
		c-0.168,0-0.273,0.067-0.273,0.206C35.505,41.603,35.611,41.667,35.779,41.667L35.779,41.667z M36.863,41.771
		c-0.396,0-0.669,0.231-0.669,0.667c0,0.437,0.273,0.676,0.672,0.676c0.189,0,0.396-0.063,0.538-0.167l-0.097-0.323
		c-0.105,0.075-0.248,0.135-0.391,0.135c-0.177,0-0.311-0.114-0.311-0.324c0-0.202,0.126-0.315,0.293-0.323
		c0.029,0.005,0.056,0.008,0.08,0.017L37,42.38h0.357v-0.524C37.249,41.81,37.03,41.771,36.863,41.771L36.863,41.771z
		 M37.458,42.438c0,0.437,0.236,0.676,0.555,0.676c0.151,0,0.269-0.051,0.36-0.15v0.126h0.546v-0.299h-0.146v-0.998h-0.4v0.129
		c-0.087-0.104-0.205-0.15-0.36-0.15C37.694,41.771,37.458,42.003,37.458,42.438L37.458,42.438z M38.138,42.124
		c0.108,0,0.197,0.063,0.234,0.172v0.302c-0.037,0.11-0.13,0.173-0.234,0.173c-0.155,0-0.269-0.118-0.269-0.323
		C37.87,42.237,37.983,42.124,38.138,42.124L38.138,42.124z M31.475,45.121h0.151v0.99h-0.151v0.345h0.719v-0.345h-0.147v-0.99
		h0.147v-0.344h-0.719V45.121z M32.303,46.456H33v-0.297h-0.147v-0.543c0.043-0.087,0.11-0.159,0.206-0.159
		c0.144,0,0.206,0.092,0.206,0.323v0.676h0.546v-0.297h-0.147V45.68c0-0.36-0.168-0.546-0.471-0.546c-0.15,0-0.26,0.063-0.34,0.156
		v-0.131h-0.549v0.298h0.15v0.702h-0.15V46.456z M33.793,45.159v0.295h0.192v0.444c0,0.406,0.168,0.583,0.44,0.583
		c0.097,0,0.207-0.021,0.333-0.066l-0.047-0.353c-0.067,0.029-0.13,0.046-0.185,0.046c-0.085,0-0.139-0.051-0.139-0.202v-0.452
		h0.331v-0.295h-0.331v-0.374h-0.403v0.374H33.793z M34.805,45.807c0,0.436,0.277,0.671,0.676,0.671c0.226,0,0.39-0.06,0.533-0.168
		l-0.093-0.312c-0.109,0.076-0.215,0.135-0.353,0.135c-0.185,0-0.293-0.079-0.332-0.218h0.841c0-0.038,0.003-0.105,0.003-0.143
		c0.009-0.378-0.193-0.639-0.608-0.639C35.09,45.134,34.805,45.369,34.805,45.807L34.805,45.807z M35.225,45.705
		c0.029-0.156,0.121-0.248,0.259-0.248c0.178,0,0.261,0.118,0.261,0.248H35.225z M36.156,45.159v0.295h0.147v0.705h-0.147v0.297
		h0.697v-0.297h-0.146v-0.207c0.025-0.285,0.189-0.433,0.42-0.433c0.025,0,0.046,0.005,0.075,0.005v-0.387
		c-0.017-0.004-0.037-0.004-0.054-0.004c-0.202,0-0.345,0.105-0.441,0.261v-0.235H36.156z M37.24,45.807
		c0,0.436,0.231,0.671,0.55,0.671c0.155,0,0.273-0.05,0.365-0.156v0.135h0.551v-0.297h-0.147v-1.479h-0.555v0.298h0.151v0.314
		c-0.088-0.104-0.21-0.159-0.36-0.159C37.471,45.134,37.24,45.369,37.24,45.807L37.24,45.807z M37.916,45.49
		c0.118,0,0.201,0.067,0.239,0.186v0.281c-0.038,0.113-0.126,0.176-0.239,0.176c-0.151,0-0.265-0.113-0.265-0.323
		C37.651,45.604,37.764,45.49,37.916,45.49L37.916,45.49z M38.789,45.454h0.151v0.705h-0.151v0.297h0.705v-0.297h-0.15v-1h-0.555
		V45.454z M39.128,45.033c0.164,0,0.273-0.063,0.273-0.205c0-0.14-0.109-0.202-0.273-0.202c-0.167,0-0.272,0.063-0.272,0.202
		C38.856,44.971,38.961,45.033,39.128,45.033L39.128,45.033z M40.167,45.134c-0.382,0-0.575,0.156-0.575,0.391
		c0,0.437,0.68,0.403,0.68,0.571c0,0.083-0.071,0.109-0.172,0.109c-0.059,0-0.121-0.009-0.181-0.021l-0.018-0.181h-0.302v0.382
		c0.151,0.047,0.349,0.093,0.559,0.093c0.369,0,0.521-0.143,0.521-0.374c0-0.444-0.681-0.415-0.681-0.604
		c0-0.072,0.08-0.102,0.198-0.102c0.05,0,0.097,0.005,0.138,0.013l0.017,0.181h0.282v-0.365
		C40.543,45.185,40.372,45.134,40.167,45.134L40.167,45.134z M41.455,45.134c-0.395,0-0.667,0.235-0.667,0.673
		c0,0.436,0.272,0.671,0.671,0.671c0.189,0,0.396-0.06,0.538-0.168l-0.093-0.323c-0.109,0.079-0.252,0.135-0.395,0.135
		c-0.176,0-0.311-0.109-0.311-0.324c0-0.197,0.125-0.311,0.294-0.318c0.029,0.004,0.055,0.008,0.08,0.017l0.021,0.252h0.357v-0.524
		C41.84,45.176,41.623,45.134,41.455,45.134L41.455,45.134z M42.089,45.454h0.15v0.705h-0.15v0.297h0.705v-0.297h-0.15v-1h-0.555
		V45.454z M42.429,45.033c0.163,0,0.273-0.063,0.273-0.205c0-0.14-0.11-0.202-0.273-0.202c-0.168,0-0.272,0.063-0.272,0.202
		C42.157,44.971,42.261,45.033,42.429,45.033L42.429,45.033z M42.828,45.454h0.152v1.166h-0.152v0.294h0.701V46.62h-0.15v-0.299
		c0.088,0.106,0.21,0.156,0.36,0.156c0.323,0,0.555-0.235,0.555-0.671c0-0.438-0.231-0.673-0.555-0.673
		c-0.15,0-0.269,0.055-0.36,0.159v-0.134h-0.551V45.454z M43.378,45.672c0.032-0.118,0.126-0.182,0.234-0.182
		c0.159,0,0.269,0.114,0.269,0.319c0,0.21-0.109,0.323-0.269,0.323c-0.108,0-0.197-0.063-0.234-0.172V45.672z M44.343,44.979h0.151
		v1.181h-0.151v0.297h0.706v-0.297h-0.151v-1.479h-0.555V44.979z M45.132,45.454h0.156v0.705h-0.156v0.297h0.71v-0.297h-0.155v-1
		h-0.555V45.454z M45.477,45.033c0.159,0,0.273-0.063,0.273-0.205c0-0.14-0.114-0.202-0.273-0.202c-0.168,0-0.277,0.063-0.277,0.202
		C45.2,44.971,45.309,45.033,45.477,45.033L45.477,45.033z M45.926,46.456h0.696v-0.297h-0.146v-0.543
		c0.038-0.087,0.109-0.159,0.206-0.159c0.139,0,0.201,0.092,0.201,0.323v0.676h0.55v-0.297h-0.146V45.68
		c0-0.36-0.168-0.546-0.474-0.546c-0.147,0-0.257,0.063-0.337,0.156v-0.131h-0.55v0.298h0.147v0.702h-0.147V46.456z M47.484,45.807
		c0,0.436,0.23,0.671,0.551,0.671c0.15,0,0.271-0.05,0.36-0.146v0.125h0.55v-0.297h-0.146v-1h-0.403v0.131
		c-0.089-0.105-0.206-0.156-0.357-0.156C47.714,45.134,47.484,45.369,47.484,45.807L47.484,45.807z M48.161,45.49
		c0.113,0,0.196,0.063,0.234,0.172v0.304c-0.038,0.104-0.126,0.167-0.234,0.167c-0.152,0-0.266-0.113-0.266-0.323
		C47.895,45.604,48.008,45.49,48.161,45.49L48.161,45.49z M49.028,45.159v0.295h0.152v0.705h-0.152v0.297h0.698v-0.297h-0.147
		v-0.207c0.029-0.285,0.193-0.433,0.42-0.433c0.029,0,0.051,0.005,0.075,0.005v-0.387c-0.017-0.004-0.033-0.004-0.051-0.004
		c-0.2,0-0.344,0.105-0.444,0.261v-0.235H49.028z M50.327,45.454l0.353,1.002h0.138l-0.012,0.047
		c-0.029,0.063-0.084,0.097-0.155,0.097c-0.076,0-0.151-0.021-0.215-0.042l-0.063,0.307c0.097,0.029,0.188,0.054,0.323,0.054
		c0.26,0,0.378-0.155,0.449-0.373l0.386-1.091h0.181v-0.295h-0.688v0.295h0.118l-0.215,0.649l-0.205-0.649h0.113v-0.295h-0.693
		v0.295H50.327z M31.475,48.48h0.151v1.003h-0.151v0.337h0.702v-0.337h-0.13v-0.269h0.222l0.327,0.605h0.446v-0.337h-0.186
		l-0.184-0.332c0.193-0.075,0.31-0.227,0.31-0.474c0-0.383-0.276-0.538-0.667-0.538h-0.84V48.48z M32.315,48.476
		c0.164,0,0.277,0.063,0.277,0.227c-0.004,0.16-0.113,0.228-0.277,0.228h-0.268v-0.454H32.315z M33.105,49.169
		c0,0.441,0.272,0.676,0.676,0.676c0.226,0,0.39-0.06,0.529-0.168l-0.094-0.314c-0.108,0.079-0.21,0.135-0.348,0.135
		c-0.185,0-0.298-0.08-0.336-0.215h0.84c0.005-0.038,0.005-0.104,0.005-0.143c0.008-0.382-0.193-0.638-0.605-0.638
		C33.385,48.502,33.105,48.731,33.105,49.169L33.105,49.169z M33.524,49.067c0.025-0.15,0.117-0.243,0.26-0.243
		c0.177,0,0.258,0.113,0.258,0.243H33.524z M35.066,48.502c-0.384,0-0.575,0.15-0.575,0.39c0,0.432,0.675,0.403,0.675,0.571
		c0,0.08-0.066,0.109-0.167,0.109c-0.06,0-0.123-0.013-0.182-0.026L34.8,49.37h-0.302v0.383c0.15,0.046,0.345,0.092,0.558,0.092
		c0.37,0,0.521-0.143,0.521-0.379c0-0.439-0.681-0.41-0.681-0.604c0-0.067,0.08-0.102,0.197-0.102c0.047,0,0.093,0.009,0.134,0.018
		l0.021,0.176h0.277v-0.36C35.443,48.552,35.266,48.502,35.066,48.502L35.066,48.502z M35.686,49.169
		c0,0.441,0.273,0.676,0.677,0.676c0.227,0,0.39-0.06,0.528-0.168l-0.092-0.314c-0.105,0.079-0.21,0.135-0.35,0.135
		c-0.184,0-0.297-0.08-0.335-0.215h0.84c0.004-0.038,0.004-0.104,0.004-0.143c0.008-0.382-0.192-0.638-0.604-0.638
		C35.972,48.502,35.686,48.731,35.686,49.169L35.686,49.169z M36.107,49.067c0.024-0.15,0.117-0.243,0.259-0.243
		c0.178,0,0.256,0.113,0.256,0.243H36.107z M37.076,49.169c0,0.441,0.231,0.676,0.551,0.676c0.151,0,0.272-0.051,0.36-0.147v0.123
		h0.55v-0.299H38.39v-1h-0.403v0.131c-0.088-0.101-0.206-0.15-0.356-0.15C37.307,48.502,37.076,48.731,37.076,49.169L37.076,49.169z
		 M37.751,48.857c0.113,0,0.198,0.063,0.235,0.173v0.298c-0.037,0.109-0.126,0.172-0.235,0.172c-0.15,0-0.264-0.113-0.264-0.322
		C37.488,48.968,37.601,48.857,37.751,48.857L37.751,48.857z M38.621,48.521v0.299h0.152v0.701h-0.152v0.299h0.698v-0.299h-0.147
		V49.32c0.029-0.29,0.193-0.433,0.423-0.433c0.026,0,0.047,0,0.072,0.004v-0.39c-0.017,0-0.033,0-0.051,0
		c-0.201,0-0.345,0.104-0.444,0.256v-0.236H38.621z M40.372,48.502c-0.394,0-0.668,0.229-0.668,0.667
		c0,0.441,0.274,0.676,0.673,0.676c0.188,0,0.395-0.06,0.537-0.168l-0.093-0.323c-0.108,0.076-0.251,0.134-0.396,0.134
		c-0.175,0-0.31-0.113-0.31-0.323c0-0.201,0.126-0.314,0.293-0.318c0.03,0,0.056,0.004,0.081,0.012l0.021,0.253h0.356v-0.521
		C40.758,48.539,40.54,48.502,40.372,48.502L40.372,48.502z M41.005,49.82h0.697v-0.299h-0.147v-0.538
		c0.038-0.088,0.105-0.163,0.202-0.163c0.143,0,0.206,0.097,0.206,0.323v0.677h0.55v-0.299h-0.151v-0.479
		c0-0.361-0.168-0.546-0.471-0.546c-0.15,0-0.256,0.067-0.336,0.155v-0.604h-0.55v0.298h0.147v1.176h-0.147V49.82z M31.475,51.852
		h0.151v0.99h-0.151v0.345h0.719v-0.345h-0.147v-0.99h0.147v-0.345h-0.719V51.852z M32.303,53.187H33v-0.298h-0.147v-0.537
		c0.043-0.094,0.11-0.164,0.206-0.164c0.144,0,0.206,0.097,0.206,0.323v0.676h0.546v-0.298h-0.147V52.41
		c0-0.361-0.168-0.546-0.471-0.546c-0.15,0-0.26,0.063-0.34,0.154V51.89h-0.549v0.298h0.15v0.701h-0.15V53.187z M34.482,51.864
		c-0.382,0-0.575,0.154-0.575,0.394c0,0.434,0.679,0.403,0.679,0.572c0,0.079-0.07,0.104-0.171,0.104
		c-0.059,0-0.118-0.008-0.182-0.021l-0.017-0.177h-0.302v0.378c0.151,0.051,0.349,0.097,0.558,0.097
		c0.371,0,0.521-0.147,0.521-0.378c0-0.445-0.681-0.416-0.681-0.605c0-0.07,0.084-0.1,0.202-0.1c0.046,0,0.092,0.004,0.134,0.016
		l0.017,0.178h0.282v-0.361C34.859,51.914,34.687,51.864,34.482,51.864L34.482,51.864z M35.061,51.89v0.293h0.193v0.446
		c0,0.406,0.167,0.587,0.44,0.587c0.096,0,0.206-0.025,0.332-0.067l-0.046-0.356c-0.067,0.029-0.131,0.046-0.186,0.046
		c-0.08,0-0.138-0.05-0.138-0.201v-0.454h0.331V51.89h-0.331v-0.374h-0.403v0.374H35.061z M36.111,52.183h0.15v0.706h-0.15v0.298
		h0.705v-0.298h-0.151V51.89h-0.554V52.183z M36.45,51.763c0.164,0,0.273-0.063,0.273-0.201c0-0.138-0.109-0.205-0.273-0.205
		c-0.167,0-0.272,0.067-0.272,0.205C36.177,51.7,36.283,51.763,36.45,51.763L36.45,51.763z M36.799,51.89v0.293h0.193v0.446
		c0,0.406,0.167,0.587,0.44,0.587c0.097,0,0.205-0.025,0.331-0.067l-0.046-0.356c-0.067,0.029-0.131,0.046-0.185,0.046
		c-0.079,0-0.139-0.05-0.139-0.201v-0.454h0.332V51.89h-0.332v-0.374h-0.402v0.374H36.799z M37.848,51.89v0.298h0.147v0.482
		c0,0.357,0.172,0.542,0.474,0.542c0.147,0,0.258-0.063,0.336-0.155v0.13h0.551v-0.298h-0.147V51.89H38.66v0.298h0.146v0.537
		c-0.042,0.093-0.104,0.168-0.201,0.168c-0.143,0-0.205-0.101-0.205-0.328V51.89H37.848z M39.389,51.89v0.293h0.193v0.446
		c0,0.406,0.164,0.587,0.437,0.587c0.097,0,0.21-0.025,0.331-0.067l-0.046-0.356c-0.067,0.029-0.13,0.046-0.181,0.046
		c-0.083,0-0.143-0.05-0.143-0.201v-0.454h0.336V51.89h-0.336v-0.374h-0.398v0.374H39.389z M40.401,52.535
		c0,0.438,0.273,0.677,0.672,0.677c0.231,0,0.396-0.063,0.533-0.168l-0.092-0.315c-0.109,0.075-0.21,0.135-0.353,0.135
		c-0.181,0-0.295-0.079-0.333-0.219h0.841c0.004-0.037,0.004-0.1,0.004-0.138c0.008-0.382-0.193-0.643-0.605-0.643
		C40.683,51.864,40.401,52.099,40.401,52.535L40.401,52.535z M40.821,52.435c0.025-0.15,0.118-0.247,0.261-0.247
		c0.172,0,0.256,0.118,0.256,0.247H40.821z"/>
	<path fill="#F74600" d="M3.145,49.707v-1.319H2.649l0.214-0.634h2.1l0.214,0.634h-0.5v1.319h2.717v-1.319H6.789l-1.834-5.223H2.872
		l-1.834,5.223H0.432v1.319H3.145z M3.204,46.688l0.705-2.107l0.701,2.107H3.204z M7.754,46.7H8.43v1.843H7.775v1.164h3.036v-1.164
		H9.992V46.7h0.957v-1.154H9.992v-0.567c0-0.664,0.223-0.877,0.613-0.877c0.264,0,0.752,0.134,0.898,0.205l0.168-1.34
		c-0.235-0.104-0.852-0.272-1.369-0.272c-1.18,0-1.873,0.635-1.873,2.297v0.555H7.754V46.7z M12.003,44.5h0.576v3.867h-0.576v1.34
		h2.792v-1.34H14.22V44.5h0.575v-1.335h-2.792V44.5z M15.324,44.483h0.576v3.904h-0.576v1.319h2.725v-1.319h-0.507v-1.045h0.868
		l1.268,2.364h1.739v-1.319h-0.713l-0.722-1.289c0.743-0.302,1.201-0.891,1.201-1.855c0-1.482-1.075-2.078-2.586-2.078h-3.271
		V44.483z M18.595,44.471c0.625,0,1.063,0.244,1.063,0.882c-0.009,0.621-0.437,0.877-1.063,0.877h-1.053v-1.759H18.595z
		 M21.895,44.5h0.575v3.867h-0.575v1.34h2.792v-1.34h-0.575V44.5h0.575v-1.335h-2.792V44.5z"/>
	<path fill="#040482" d="M59.365,55.345c0.236-1.457,1.302-3.51,2.18-5.193c0.546-1.046,1.012-1.944,1.129-2.394v-0.009
		c0.067-0.239,0.089-0.659,0.08-1.095c-0.013-0.487-0.067-0.982-0.146-1.285l-0.004-0.009c-0.047-0.201-0.093-0.252-0.131-0.239
		c-0.201,0.067-0.479,0.319-0.664,0.492c-0.369,0.348-0.57,0.818-0.772,1.301c-0.302,0.723-0.611,1.461-1.465,2.011l0,0
		c-0.411,0.269-0.768,0.412-1.074,0.529c-0.639,0.253-0.97,0.382-0.676,2.372l0,0c0.298,1.852-0.159,2.284-0.651,2.745
		c-0.247,0.236-0.508,0.479-0.566,1.215v0.003c-0.118,1.227,0.247,2.083,0.764,2.549c0.198,0.177,0.416,0.294,0.634,0.354
		c0.206,0.054,0.407,0.054,0.596,0c0.324-0.097,0.609-0.379,0.748-0.853l0,0c0.139-0.476,0.088-0.853,0.037-1.231
		C59.332,56.226,59.282,55.84,59.365,55.345L59.365,55.345z M62.321,50.555c-0.848,1.633-1.885,3.623-2.095,4.933v0.009
		c-0.063,0.365-0.021,0.684,0.021,0.998c0.063,0.471,0.127,0.937-0.063,1.588l0,0c-0.234,0.793-0.738,1.269-1.338,1.448
		c-0.341,0.101-0.71,0.101-1.07,0.004c-0.35-0.092-0.688-0.277-0.992-0.546c-0.696-0.63-1.191-1.738-1.049-3.274H55.73
		c0.084-1.065,0.474-1.432,0.843-1.78c0.315-0.298,0.608-0.575,0.383-1.973v-0.008c-0.395-2.68,0.16-2.897,1.221-3.313
		c0.273-0.105,0.589-0.231,0.92-0.444V48.19c0.626-0.403,0.882-1.017,1.138-1.616c0.239-0.571,0.476-1.13,0.979-1.601l0.004-0.003
		c0.239-0.224,0.597-0.55,0.979-0.676c0.546-0.186,1.046-0.056,1.26,0.864c0.093,0.36,0.155,0.928,0.172,1.474
		c0.013,0.517-0.021,1.024-0.108,1.348l0,0C63.371,48.543,62.883,49.476,62.321,50.555L62.321,50.555z"/>
</g>
</svg>
